<svg width="9" height="11" viewBox="0 0 9 11" fill="#D63F3F" xmlns="http://www.w3.org/2000/svg">
<path d="M3.06048 0C2.84002 0 2.66129 0.18246 2.66129 0.407536V0.815072H0.399194C0.178725 0.815072 0 0.997532 0 1.22261C0 1.44768 0.178725 1.63014 0.399194 1.63014H7.85081C8.07127 1.63014 8.25 1.44768 8.25 1.22261C8.25 0.997532 8.07127 0.815072 7.85081 0.815072H5.58871V0.407536C5.58871 0.18246 5.40998 0 5.18952 0H3.06048Z" fill="#D63F3F"/>
<path d="M3.06048 4.5644C3.28095 4.5644 3.45968 4.74686 3.45968 4.97193L3.45968 8.7756C3.45968 9.00068 3.28095 9.18314 3.06048 9.18314C2.84002 9.18314 2.66129 9.00068 2.66129 8.7756L2.66129 4.97193C2.66129 4.74686 2.84002 4.5644 3.06048 4.5644Z" fill="#D63F3F"/>
<path d="M5.58871 4.97193C5.58871 4.74686 5.40998 4.5644 5.18952 4.5644C4.96905 4.5644 4.79032 4.74686 4.79032 4.97193V8.7756C4.79032 9.00068 4.96905 9.18314 5.18952 9.18314C5.40998 9.18314 5.58871 9.00068 5.58871 8.7756V4.97193Z" fill="#D63F3F"/>
<path fill-rule="evenodd" clip-rule="evenodd" d="M0.926887 3.07944C0.94935 2.87305 1.12023 2.71691 1.32364 2.71691H6.92636C7.12977 2.71691 7.30065 2.87305 7.32311 3.07944L7.42964 4.05825C7.62275 5.83257 7.62275 7.62326 7.42964 9.39758L7.41915 9.49394C7.3425 10.1982 6.80782 10.7598 6.12039 10.8581C4.79658 11.0473 3.45341 11.0473 2.12961 10.8581C1.44218 10.7598 0.907498 10.1982 0.830844 9.49394L0.820356 9.39758C0.627246 7.62326 0.627246 5.83257 0.820356 4.05825L0.926887 3.07944ZM1.68093 3.53198L1.61386 4.14826C1.42726 5.86276 1.42726 7.59308 1.61386 9.30757L1.62435 9.40393C1.6607 9.73795 1.91428 10.0043 2.2403 10.0509C3.49067 10.2296 4.75933 10.2296 6.00969 10.0509C6.33572 10.0043 6.58929 9.73795 6.62565 9.40393L6.63614 9.30757C6.82273 7.59308 6.82273 5.86276 6.63614 4.14826L6.56906 3.53198H1.68093Z" fill="#D63F3F"/>
</svg>
